<?xml version="1.0" encoding="UTF-8" standalone="no"?>
<svg
   data-v-423bf9ae=""
   viewBox="0 0 289.10989 78.623978"
   class="iconLeft"
   version="1.1"
   id="svg16"
   sodipodi:docname="default-monochrome-white.svg"
   inkscape:version="1.1 (c4e8f9ed74, 2021-05-24)"
   width="289.10989"
   height="78.623978"
   xmlns:inkscape="http://www.inkscape.org/namespaces/inkscape"
   xmlns:sodipodi="http://sodipodi.sourceforge.net/DTD/sodipodi-0.dtd"
   xmlns="http://www.w3.org/2000/svg"
   xmlns:svg="http://www.w3.org/2000/svg">
  <defs
     id="defs20" />
  <sodipodi:namedview
     id="namedview18"
     pagecolor="#ffffff"
     bordercolor="#666666"
     borderopacity="1.0"
     inkscape:pageshadow="2"
     inkscape:pageopacity="0.0"
     inkscape:pagecheckerboard="true"
     showgrid="false"
     inkscape:zoom="4.5433333"
     inkscape:cx="61.408657"
     inkscape:cy="59.427733"
     inkscape:window-width="1916"
     inkscape:window-height="1056"
     inkscape:window-x="0"
     inkscape:window-y="20"
     inkscape:window-maximized="1"
     inkscape:current-layer="svg16" />
  <!---->
  <!---->
  <!---->
  <g
     data-v-423bf9ae=""
     id="699c58f0-bf35-4890-80fb-272751c2626e"
     fill="#ffffff"
     transform="matrix(2.9761902,0,0,2.9761902,86.728962,12.645325)">
    <path
       d="m 4.48,13.92 v 0 0 q -1.36,0 -2.13,-0.98 v 0 0 Q 1.57,11.96 1.57,10.18 v 0 0 q 0,-1.77 0.8,-2.76 v 0 0 Q 3.16,6.43 4.59,6.43 v 0 0 q 0.84,0 1.46,0.39 v 0 0 q 0.61,0.39 0.92,1.1 v 0 L 6.08,8.27 v 0 Q 5.66,7.31 4.55,7.31 v 0 0 q -1.96,0 -1.96,2.87 v 0 0 q 0,2.85 1.93,2.85 v 0 0 q 0.6,0 1.04,-0.29 v 0 0 q 0.43,-0.29 0.63,-0.8 v 0 l 0.88,0.34 v 0 q -0.27,0.75 -0.96,1.2 v 0 0 q -0.69,0.44 -1.63,0.44 z m 8.41,0 v 0 0 q -1.24,0 -1.95,-0.61 v 0 0 Q 10.23,12.7 9.86,11.62 v 0 l 0.91,-0.38 v 0 q 0.32,0.91 0.83,1.34 v 0 0 q 0.51,0.43 1.29,0.43 v 0 0 q 0.91,0 1.5,-0.49 v 0 0 q 0.59,-0.49 0.59,-1.43 v 0 0 q 0,-0.93 -0.57,-1.46 v 0 0 Q 13.85,9.1 12.8,9.1 v 0 H 12.14 V 8.2 h 0.52 v 0 q 0.86,0 1.4,-0.48 v 0 0 q 0.53,-0.48 0.53,-1.29 v 0 0 q 0,-0.79 -0.49,-1.26 v 0 0 Q 13.61,4.69 12.92,4.69 v 0 0 q -1.33,0 -1.89,1.51 v 0 L 10.12,5.85 v 0 q 0.31,-0.87 1.02,-1.47 v 0 0 q 0.7,-0.6 1.74,-0.6 v 0 0 q 1.18,0 1.95,0.69 v 0 0 q 0.78,0.7 0.78,1.82 v 0 0 q 0,0.65 -0.34,1.24 v 0 0 q -0.33,0.59 -0.91,0.9 v 0 0 q 0.77,0.31 1.22,0.99 v 0 0 q 0.44,0.69 0.44,1.64 v 0 0 q 0,1.22 -0.93,2.04 v 0 0 q -0.92,0.82 -2.2,0.82 z M 21.7,6.43 v 0 0 q 1.37,0 2.01,0.79 v 0 0 q 0.64,0.8 0.64,2.57 v 0 3.96 h -0.98 v -4.37 0 q 0,-1.08 -0.48,-1.57 v 0 0 q -0.48,-0.5 -1.27,-0.5 v 0 0 q -1.85,0 -1.85,2.04 v 0 4.4 H 18.79 V 6.59 h 0.92 v 0.86 0 Q 20.38,6.43 21.7,6.43 Z M 27.38,4.79 V 3.95 h 5.59 v 0.64 0 q -2.98,3.57 -3.01,9.16 v 0 h -0.98 v 0 q 0.03,-2.54 0.65,-4.68 v 0 0 q 0.62,-2.15 2.22,-4.28 v 0 z M 39.3,19.04 H 38.32 V -1.12 H 39.3 Z M 50.5,9.88 v 0 0 q 0,0.38 -0.03,0.69 v 0 H 45.4 v 0 q 0.14,1.15 0.72,1.79 v 0 0 q 0.57,0.65 1.49,0.65 v 0 0 q 0.91,0 1.71,-0.56 v 0 l 0.53,0.65 v 0 q -1.03,0.82 -2.28,0.82 v 0 0 q -1.47,0 -2.34,-1.09 v 0 0 q -0.86,-1.08 -0.86,-2.67 v 0 0 q 0,-1.76 0.86,-2.75 v 0 0 Q 46.1,6.43 47.57,6.43 v 0 0 q 1.28,0 2.1,0.87 v 0 0 Q 50.5,8.18 50.5,9.88 Z M 45.37,9.69 v 0 h 4.13 v 0 Q 49.49,8.39 48.91,7.85 v 0 0 Q 48.33,7.31 47.57,7.31 v 0 0 q -1.03,0 -1.59,0.63 v 0 0 Q 45.43,8.57 45.37,9.69 Z M 57.76,6.43 v 0 0 q 1.03,0 1.52,0.32 v 0 2.39 h -1 v -1.66 0 Q 58.03,7.43 57.69,7.43 v 0 0 q -1.06,0 -1.89,0.54 v 0 0 q -0.84,0.54 -0.84,1.48 v 0 3.42 h 2.15 v 0.88 h -4.65 v -0.88 h 1.48 V 7.48 H 52.46 V 6.59 h 2.45 v 1.26 0 q 0.4,-0.64 1.23,-1.03 v 0 0 q 0.83,-0.39 1.62,-0.39 z m 5.13,9.67 -0.98,0.49 v -10 h 0.98 v 0.65 0 q 0.42,-0.39 0.87,-0.6 v 0 0 Q 64.2,6.43 64.89,6.43 v 0 0 q 1.44,0 2.28,1.01 v 0 0 Q 68,8.46 68,10.16 v 0 0 q 0,1.77 -0.85,2.76 v 0 0 q -0.85,1 -2.2,1 v 0 0 q -1.29,0 -2.06,-0.9 v 0 z m 1.94,-3.07 v 0 0 q 1.03,0 1.59,-0.74 v 0 0 q 0.56,-0.74 0.56,-2.13 v 0 0 q 0,-1.31 -0.58,-2.08 v 0 0 Q 65.81,7.31 64.78,7.31 v 0 0 q -1.28,0 -1.89,1.1 v 0 3.52 0 q 0.85,1.1 1.94,1.1 z"
       id="path2" />
  </g>
  <!---->
  <g
     data-v-423bf9ae=""
     id="e2d39384-52c5-4af3-a8e0-cf0e89de0b47"
     transform="matrix(0.80381931,0,0,0.80381931,-10.435986,-0.80381931)"
     stroke="none"
     fill="#ffffff"
     style="stroke-width:1.35206">
    <g
       clip-rule="evenodd"
       id="g13"
       style="stroke-width:1.82806">
      <path
         d="M 12.983,10.59 30.001,98.813 24.129,39.764 53.15,37.872 53.096,27.989 64.549,1 53.622,18.977 Z"
         id="path5"
         style="stroke-width:1.35206" />
      <path
         d="m 59.389,54.548 5.16,-53.541 -8.74,39.716 -19.612,1.045 1.57,20.462 -7.766,36.583 12.057,-39.899 z"
         id="path7"
         style="stroke-width:1.35206" />
      <path
         d="M 62.8,67.182 63.349,56.729 47.37,60.484 47.338,72.281 30.001,98.813 51.681,71.197 Z m 2.911,-4.788 14.841,-4.731 1.509,-12.532 -15.899,2.095 z M 72.07,44.502 83.058,43.085 84.639,32.807 76.56,32.434 64.549,1 l 8.43,30.967 z"
         id="path9"
         style="stroke-width:1.35206" />
      <path
         d="M 87.413,31.294 88.669,21.788 79.125,19.094 64.549,1 l 14.483,22.437 -0.422,7 z"
         id="path11"
         style="stroke-width:1.35206" />
    </g>
  </g>
  <!---->
</svg>
